<svg xmlns="http://www.w3.org/2000/svg" version="1.1" width="237" height="237"><rect id="backgroundrect" width="100%" height="100%" x="0" y="0" fill="none" stroke="none"/>

<g class="currentLayer" style=""><title>Layer 1</title><path fill="#0091BD" d="m53.6,80.56228742599487 h15.9 v68.1 h-15.9 v-7.1 c-7,8.1 -15.5,9.2 -20.4,9.2 c-21,0 -33,-17.5 -33,-36.2 c0,-22.2 15.2,-35.8 33.2,-35.8 c5,0 13.8,1.3 20.2,9.7 zm-37.1,34.4 c0,11.7 7.4,21.7 18.9,21.7 c10,0 19.3,-7.3 19.3,-21.5 c0,-14.9 -9.2,-22 -19.3,-22 c-11.5,-0.1 -18.9,9.7 -18.9,21.8 zm71.9,-34.4 h15.9 v6.1 c1.8,-2.1 4.4,-4.4 6.6,-5.7 c3.1,-1.8 6.1,-2.3 9.7,-2.3 c3.9,0 8.1,0.6000000000000006 12.5,3.2 l-6.5,14.4 c-3.6,-2.3 -6.5,-2.4 -8.1,-2.4 c-3.4,0 -6.8,0.5 -9.9,3.7 c-4.4,4.7 -4.4,11.2 -4.4,15.7 v35.4 h-15.9 zm54.9,0 h15.9 v6.3 c5.3,-6.5 11.6,-8.1 16.8,-8.1 c7.1,0 13.8,3.4 17.6,10 c5.7,-8.1 14.2,-10 20.2,-10 c8.3,0 15.5,3.9 19.4,10.7 c1.3,2.3 3.6,7.3 3.6,17.2 v42.1 h-15.9 v-37.4 c0,-7.6 -0.8,-10.7 -1.5,-12.1 c-1,-2.6 -3.4,-6 -9.1,-6 c-3.9,0 -7.3,2.1 -9.4,5 c-2.8,3.9 -3.1,9.7 -3.1,15.5 v35.1 h-15.9 v-37.5 c0,-7.6 -0.8,-10.7 -1.5,-12.1 c-1,-2.6 -3.4,-6 -9.1,-6 c-3.9,0 -7.3,2.1 -9.4,5 c-2.8,3.9 -3.1,9.7 -3.1,15.5 v35.1 h-15.5 z" id="svg_1" class=""/></g></svg>